<svg width="701" height="700" viewBox="0 0 701 700" fill="none" xmlns="http://www.w3.org/2000/svg">
<path d="M350.5 695C541.038 695 695.5 540.538 695.5 350C695.5 159.462 541.038 5 350.5 5C159.962 5 5.5 159.462 5.5 350C5.5 540.538 159.962 695 350.5 695Z" fill="#FF8E3D"/>
<path d="M348 3C485.944 212.518 479.301 378.565 466.986 675" stroke="black" stroke-width="10"/>
<path d="M159.81 62C502.737 186.633 383.58 333.308 118 608" stroke="black" stroke-width="10"/>
<path d="M522.499 43C498.629 125.405 552.897 236.211 677 465" stroke="black" stroke-width="10"/>
<path d="M4 358C242.7 236.321 378.905 175.974 657 184.857" stroke="black" stroke-width="10"/>
</svg>
